<svg xmlns="http://www.w3.org/2000/svg" viewBox="0 0 32 32"><style>.fill{fill:#1f2225}@media (prefers-color-scheme:dark){.fill{fill:#e8e8e8}}</style><circle class="fill" cx="21" cy="26" r="2"/><circle class="fill" cx="21" cy="6" r="2"/><circle class="fill" cx="4" cy="16" r="2"/><path class="fill" d="M28 12a3.996 3.996 0 0 0-3.858 3h-4.284a3.966 3.966 0 0 0-5.491-2.643l-3.177-3.97A3.963 3.963 0 0 0 12 6a4 4 0 1 0-4 4 3.96 3.96 0 0 0 1.634-.357l3.176 3.97a3.924 3.924 0 0 0 0 4.774l-3.176 3.97A3.96 3.96 0 0 0 8 22a4 4 0 1 0 4 4 3.962 3.962 0 0 0-.81-2.387l3.176-3.97A3.966 3.966 0 0 0 19.858 17h4.284A3.993 3.993 0 1 0 28 12zM6 6a2 2 0 1 1 2 2 2.002 2.002 0 0 1-2-2zm2 22a2 2 0 1 1 2-2 2.002 2.002 0 0 1-2 2zm8-10a2 2 0 1 1 2-2 2.002 2.002 0 0 1-2 2zm12 0a2 2 0 1 1 2-2 2.002 2.002 0 0 1-2 2z"/></svg>