<svg version="1.0" xmlns="http://www.w3.org/2000/svg" width="933.333" height="933.333" viewBox="0 0 700 700"><path d="M173.8 43.5c-.1.2-3.2.5-6.8.8-40.1 3.1-73.3 35.2-78.8 76.2-5.1 38.2 17.2 76.4 53.3 91.4 11.1 4.7 20.2 6.4 33.5 6.4 12 0 25.5-2.5 32.2-5.9 3.7-1.9 1.8-3.9 22.8 22.6 8.5 10.7 15.7 19.7 16 20 .4.4 29.9 37.4 33.2 41.6.6.8-.1 2.6-1.8 5-5.4 8-11.4 21.8-12.8 30-.3 1.6-.8 4-1.1 5.4-.8 3.4-.8 19.5-.1 25 1.5 11.4 8.2 28.7 14.4 36.8 2.1 2.8 2.3 3.4 1.1 5.1-3.3 4.5-68.2 85.1-68.6 85.1-.2 0-1.6-.6-3.1-1.4-6.8-3.4-19.7-5.9-30.7-6-20.2-.1-33.9 4-50.5 14.9-35.6 23.5-48.3 70.2-29.9 109.4 16.3 34.6 51.9 54.1 90.4 49.6 22.4-2.6 44.6-15.7 58.4-34.4 5.4-7.3 11-17.9 13.4-25.6 5.1-16 5.4-34.8.7-50.5-2.3-7.7-8.2-20.2-11.6-24.8-1.5-1.9-2.2-3.7-1.8-4.5 1.2-1.9 68.4-85.7 68.8-85.7.2 0 3.2 1.1 6.8 2.4 26.8 9.7 57.3 5.2 80.3-12 15-11.1 25.8-26 31.1-42.7 1.6-5.3 2-5.7 4.8-5.7 29-.4 90 .1 90.5.7.4.4 1.5 3.3 2.5 6.3 9.4 27.8 35.6 50.6 65.1 56.5 6.6 1.4 22.8 1.7 30.3.6 27.4-4 52.8-22.6 64.9-47.5 2.9-5.7 6-14.1 6.7-17.6.3-1.4.8-3.6 1.1-5 2.2-8.9.8-32.4-2.6-42.9-4.1-12.6-13.6-27.4-23.7-36.9-40.9-38.6-108.2-28.1-135.6 21.1-4 7.2-8.7 19.3-7.9 20.1.4.3-1.4.6-3.8.6-5.5.1-76.3.1-84.5 0h-6l-2.2-6.8c-8.9-27.5-34.4-50.2-63.8-56.8-14.7-3.2-34.9-1.7-48.7 3.7-2.6 1.1-5 1.9-5.2 1.9-.3 0-8.5-10-18.2-22.2-9.8-12.3-18.6-23.2-19.5-24.3-4-4.9-30.5-38.1-31.1-39.2-.4-.6.4-2.9 1.9-5 5.6-8.2 11.1-21 12.8-29.8 1.6-8.1 1.8-10.7 1.8-19.5.1-44-35.3-82.2-79.2-85.6-3.6-.3-7-.7-7.7-.9-.6-.2-1.3-.2-1.5 0zM186.2 89c22.2 5.9 36.1 28.4 31.4 50.8-2.8 13.5-11.5 24.9-23.2 30.4-7 3.3-8.7 3.7-16.5 4.5-16.5 1.5-34.5-8.8-41.9-24.1-3.7-7.7-4.4-11.2-4.3-20.8.4-27.7 27.5-47.9 54.5-40.8zm176.5 219.1c13.3 4.6 22.9 13.6 27.9 26 9.7 23.9-5.2 52.4-30.5 58.3-5.3 1.2-14.8 1.4-19.1.3-9.7-2.3-18.1-7.4-24.8-14.7-2.7-3-7.8-13.4-8.7-17.5-4.9-24.7 9.1-47.4 33-53.1 6-1.4 17-1.1 22.2.7zm262.9.3c16.3 5.7 27 18.2 29.8 34.9 3.1 18.3-6.7 37.4-23.6 45.6-7.9 3.8-12.5 4.8-21.3 4.5-22.9-.7-41.5-20.1-41.5-43.4 0-24.9 20.8-44.8 45.5-43.5 3.9.3 8.9 1.1 11.1 1.9zm-440.5 218c28.5 6.7 42.1 39.2 27.3 64.7-9.1 15.5-27.5 23.7-45.9 20.5-11.7-2-25.6-12.7-30.7-23.6-15.6-33.6 13.6-70.1 49.3-61.6z"/><path d="M452.4 88.2c-20.6 3.1-36.4 21.6-36.6 42.8-.2 26.3 23.5 47.1 49.4 43.4 17.4-2.6 31.4-14.6 36.2-31.2 2-7 1.6-20.1-.9-26.7-7.4-19.7-27.4-31.5-48.1-28.3zM79 307.1c-6.2 1.2-16 6.2-21.2 10.8-12.5 11.2-17.2 30.5-11.4 46.8 5.7 16 21 27.6 38.2 28.7 26.2 1.8 47.8-19.6 46.1-45.5-.6-9.1-1-10.7-4.2-17.4-8.5-17.2-28.2-27-47.5-23.4zM447 526.9c-26.2 8.2-38.6 36.8-26.7 61.1 8.7 17.6 27.9 27.2 47.3 23.5 13.7-2.6 24.8-11.3 31.2-24.5 3.3-6.8 3.6-8.4 3.8-17 .2-8-.1-10.5-2.2-16-4.6-12.3-14.3-21.9-26.2-26.2-7.6-2.8-19.9-3.1-27.2-.9z"/></svg>